<svg aria-hidden="true" style="width:0;height:0;position:absolute;overflow:hidden" xmlns="http://www.w3.org/2000/svg"><defs><symbol id="heart" viewBox="0 0 32 32"><path fill="#FF6B08" d="M23 2c-2.404 0-4.331.863-6.03 2.563l-.003.003h-.001L16 5.783l-.966-1.143-.003-.003h-.001C13.33 2.936 11.404 2 9 2s-4.664.936-6.364 2.636A8.945 8.945 0 0 0 0 11c0 2.402.935 4.662 2.633 6.361L14.58 29.408a1.998 1.998 0 0 0 2.84 0l11.946-12.047C31.064 15.662 32 13.403 32 11s-.937-4.664-2.636-6.364A8.94 8.94 0 0 0 23 2z"/></symbol></defs></svg>